<svg xmlns="http://www.w3.org/2000/svg" viewBox="0 0 4205.31 2346.92">
  <defs>
    <style>
      .cls-1, .cls-2, .cls-3, .cls-4 {
        fill: #067791;
      }

      .cls-1 {
        opacity: 0.15;
      }

      .cls-2 {
        opacity: 0.35;
      }

      .cls-3, .cls-5 {
        opacity: 0.65;
      }

      .cls-5 {
        fill: #063959;
      }

      .cls-6, .cls-7 {
        fill: #0d0f21;
      }

      .cls-6 {
        opacity: 0.6;
      }

      .cls-7 {
        opacity: 0.75;
      }
    </style>
  </defs>
  <title>skyline1</title>
  <g id="_8" data-name="8">
    <polygon class="cls-1" points="3655.32 545.76 3655.32 1037.8 2146.36 1037.8 2146.36 1058.64 240 1058.64 240 1073.28 0 1073.28 0 631.42 146.64 631.42 146.64 570.64 185.18 570.64 185.18 266.66 542.29 266.66 542.29 570.64 705.01 570.64 705.01 266.66 766.52 266.66 766.52 342.64 828.24 342.64 828.24 570.64 909.03 570.64 909.03 76 1032.05 76 1032.05 570.64 1395.08 570.64 1395.08 0 1456.59 0 1456.59 570.64 1674 570.64 1674 209.64 1856.47 209.64 1856.47 570.64 2035.16 570.64 2035.16 545.76 2098 545.76 2098 148.64 2146.36 148.64 2146.36 545.76 2389.19 545.76 2389.19 200.72 2635.22 200.72 2635.22 545.76 2728.22 545.76 2728.22 351.33 2850.99 351.33 2850.99 545.76 2977.25 545.76 2977.25 158.05 3100.02 158.05 3100.02 266.49 3196.03 266.49 3196.03 545.76 3406.29 545.76 3406.29 403.17 3652.32 403.17 3652.32 545.76 3655.32 545.76"/>
  </g>
  <g id="_7" data-name="7">
    <polygon class="cls-2" points="4136.57 665.13 4136.57 1156.01 159.65 1156.01 159.65 665.13 232.71 665.13 232.71 317.01 345.01 317.01 345.01 665.13 378.3 665.13 378.3 420.79 490.59 420.79 490.59 665.13 602.89 665.13 602.89 516.86 620.5 516.86 620.5 241.84 659.92 241.84 659.92 516.86 683.51 516.86 683.51 241.84 722.92 241.84 722.92 516.86 742.03 516.86 742.03 665.13 1119.38 665.13 1119.38 538.42 1159.65 538.42 1159.65 326.74 1294.93 326.74 1294.93 538.42 1410.86 538.42 1410.86 566.1 1467.01 566.1 1467.01 665.13 1504.1 665.13 1504.1 440.75 1855.21 440.75 1855.21 665.13 2209.91 665.13 2209.91 317.01 2322.21 317.01 2322.21 665.13 2355.5 665.13 2355.5 420.79 2467.79 420.79 2467.79 665.13 2580.09 665.13 2580.09 516.86 2660.71 516.86 2660.71 350.74 2700.12 350.74 2700.12 516.86 2719.23 516.86 2719.23 665.13 3096.58 665.13 3096.58 538.42 3136.85 538.42 3136.85 326.74 3272.13 326.74 3272.13 538.42 3388.06 538.42 3388.06 566.1 3444.21 566.1 3444.21 665.13 3481.3 665.13 3481.3 440.75 3832.41 440.75 3832.41 665.13 4136.57 665.13"/>
    <rect class="cls-2" x="2059.16" y="741.77" width="903.09" height="426.04"/>
  </g>
  <g id="_6" data-name="6">
    <g id="Ebene_1" data-name="Ebene 1">
      <polygon class="cls-3" points="4135.36 655.27 4135.36 1181.45 2135.64 1181.45 2135.64 1177.02 2075.36 1177.02 2075.36 1181.45 75.64 1181.45 75.64 655.27 352.36 655.27 352.36 1017.6 433.37 1017.6 433.37 735.57 477.98 735.57 477.98 655.27 644.47 655.27 644.47 735.57 687.07 735.57 687.07 1017.6 723.58 1017.6 723.58 537.94 1145.17 537.94 1145.17 1017.6 1210.92 1017.6 1210.92 735.57 1632.52 735.57 1632.52 1017.6 1894.92 1017.6 1894.92 527.23 2075.36 527.23 2075.36 947.02 2135.64 947.02 2135.64 527.23 2316.08 527.23 2316.08 1017.6 2578.48 1017.6 2578.48 735.57 3000.08 735.57 3000.08 1017.6 3065.83 1017.6 3065.83 537.94 3487.42 537.94 3487.42 1017.6 3523.93 1017.6 3523.93 735.57 3566.53 735.57 3566.53 655.27 3733.02 655.27 3733.02 735.57 3777.63 735.57 3777.63 1017.6 3858.64 1017.6 3858.64 655.27 4135.36 655.27"/>
    </g>
  </g>
  <g id="_5" data-name="5">
    <polygon class="cls-4" points="4118.65 1150.46 4118.65 2335.02 150.65 2335.02 150.65 1150.46 236.28 1150.46 236.28 947.56 350.96 947.56 350.96 894.31 461.57 894.31 461.57 947.56 572.17 947.56 572.17 1150.46 636.24 1150.46 636.24 841.05 876.01 841.05 876.01 556.43 945.27 556.43 945.27 841.05 1185.16 841.05 1185.16 1150.46 1252.48 1150.46 1252.48 776.12 1275.02 776.12 1275.02 596.19 1355.43 596.19 1355.43 776.12 1377.97 776.12 1377.97 1150.46 1405.5 1150.46 1405.5 894.31 1451.96 894.31 1451.96 841.05 1659.43 841.05 1659.43 1150.46 1695.94 1150.46 1695.94 630.74 1813.13 630.74 1813.13 1150.46 1874.23 1150.46 1874.23 810 2089.19 810 2089.19 1150.46 2204.28 1150.46 2204.28 947.56 2318.96 947.56 2318.96 894.31 2429.57 894.31 2429.57 947.56 2540.17 947.56 2540.17 1150.46 2604.24 1150.46 2604.24 841.05 2636.01 841.05 2636.01 556.02 2776.01 556.02 2776.01 841.05 2844.01 841.05 2844.01 684.02 2913.27 684.02 2913.27 841.05 3153.16 841.05 3153.16 1150.46 3220.48 1150.46 3220.48 776.12 3243.02 776.12 3243.02 596.19 3323.43 596.19 3323.43 776.12 3345.97 776.12 3345.97 1150.46 3373.5 1150.46 3373.5 894.31 3419.96 894.31 3419.96 841.05 3627.43 841.05 3627.43 1150.46 3663.94 1150.46 3663.94 630.74 3781.13 630.74 3781.13 1150.46 3842.23 1150.46 3842.23 810 4057.19 810 4057.19 1150.46 4118.65 1150.46"/>
  </g>
  <g id="_4" data-name="4">
    <polygon class="cls-5" points="3736.01 1306.02 3736.01 2334.02 2150.37 2334.02 2150.37 2335.02 140.01 2335.02 140.01 1353.46 224.01 1353.46 224.01 886.25 246.01 886.25 246.01 736.25 286.01 736.25 286.01 886.25 306.01 886.25 306.01 1353.46 488.65 1353.46 488.65 1240.25 545.24 1240.25 545.24 971.78 677.75 971.78 677.75 1240.25 801.5 1240.25 801.5 1043.08 934.01 1043.08 934.01 1240.25 1023.13 1240.25 1023.13 1353.46 1058.01 1353.46 1058.01 1087.07 1294.01 1087.07 1294.01 1353.46 1318.01 1353.46 1318.01 998.25 1382.01 998.25 1382.01 1353.46 1478.01 1353.46 1478.01 1262.25 1714.01 1262.25 1714.01 1087.07 1866.9 1087.07 1866.9 626.33 1922.01 626.33 1922.01 1087.07 2019.79 1087.07 2019.79 1353.46 2094.01 1353.46 2094.01 1306.02 2114.01 1306.02 2114.01 926.02 2395.66 926.02 2395.66 1306.02 2647.55 1306.02 2647.55 926.02 2748.06 926.02 2748.06 672.64 2831.66 672.64 2831.66 1306.02 2955.35 1306.02 2955.35 1116.33 3104.01 1116.33 3104.01 1306.02 3192.01 1306.02 3192.01 865.57 3392.01 865.57 3392.01 960.3 3460.01 960.3 3460.01 1036.02 3518.01 1036.02 3518.01 1306.02 3736.01 1306.02"/>
    <rect class="cls-5" x="2318.01" y="1230.02" width="426" height="446"/>
  </g>
  <g id="_3" data-name="3">
    <polygon class="cls-6" points="4068.65 1672.01 4068.65 2336.75 139.4 2336.75 139.4 1672.01 404.23 1672.01 404.23 1099.39 593.89 1099.39 593.89 1672.01 632.91 1672.01 632.91 1315.22 768.4 1315.22 768.4 1248.2 941.54 1248.2 941.54 1510.23 957.22 1510.23 957.22 918.35 1087.76 918.35 1087.76 1510.23 1137.35 1510.23 1137.35 1237.17 1335.97 1237.17 1335.97 1632.08 1185.16 1632.08 1185.16 1672.01 1476.96 1672.01 1476.96 1572.02 1478.01 1572.02 1478.01 998.32 1678.01 998.32 1678.01 1113.62 1755.43 1113.62 1755.43 1438.09 1877.44 1438.09 1877.44 1113.62 2069.44 1113.62 2069.44 1672.01 2138.61 1672.01 2138.61 1113.62 2330.61 1113.62 2330.61 1438.09 2452.62 1438.09 2452.62 1113.62 2530.04 1113.62 2530.04 998.32 2730.04 998.32 2730.04 1572.02 2731.09 1572.02 2731.09 1672.01 2873.34 1672.01 2873.34 1632.08 2872.08 1632.08 2872.08 1237.17 3070.7 1237.17 3070.7 1510.23 3120.29 1510.23 3120.29 918.35 3250.83 918.35 3250.83 1510.23 3266.51 1510.23 3266.51 1248.2 3439.65 1248.2 3439.65 1315.22 3575.14 1315.22 3575.14 1672.01 3614.16 1672.01 3614.16 1099.39 3803.82 1099.39 3803.82 1672.01 4068.65 1672.01"/>
  </g>
  <g id="_2" data-name="2">
    <polygon class="cls-7" points="4205.31 1916.46 4205.31 2227.52 4082.64 2227.52 4082.64 2345.39 3776.27 2345.39 3776.27 2227.52 3712.98 2227.52 3712.98 2346.92 3392.29 2346.92 3392.29 2227.52 2515.77 2227.52 2515.77 2338.73 2209.4 2338.73 2209.4 2282.02 1894.01 2282.02 1894.01 2265.39 1706.27 2265.39 1706.27 2147.52 1642.98 2147.52 1642.98 2266.92 1322.29 2266.92 1322.29 2147.52 445.77 2147.52 445.77 2258.73 139.4 2258.73 139.4 1298.57 445.77 1298.57 445.77 1836.46 458.31 1836.46 458.31 1549.77 508.61 1549.77 508.61 1362.85 611.5 1362.85 611.5 1549.77 764.69 1549.77 764.69 1836.46 886.05 1836.46 886.05 1406 1097.29 1406 1097.29 1836.46 1322.29 1836.46 1322.29 1508.43 1642.98 1508.43 1642.98 1836.46 1706.27 1836.46 1706.27 1678.35 1798.48 1678.35 1798.48 1406 2001.09 1406 2001.09 1678.35 2012.64 1678.35 2012.64 1752.02 2209.4 1752.02 2209.4 1378.57 2515.77 1378.57 2515.77 1916.46 2528.31 1916.46 2528.31 1629.77 2578.61 1629.77 2578.61 1442.85 2681.5 1442.85 2681.5 1629.77 2834.69 1629.77 2834.69 1916.46 2956.05 1916.46 2956.05 1486 3167.29 1486 3167.29 1916.46 3392.29 1916.46 3392.29 1588.43 3712.98 1588.43 3712.98 1916.46 3776.27 1916.46 3776.27 1758.35 3868.48 1758.35 3868.48 1486 4071.09 1486 4071.09 1758.35 4082.64 1758.35 4082.64 1916.46 4205.31 1916.46"/>
  </g>
  <g id="_1" data-name="1">
    <polygon points="3740.01 1790.02 3740.01 2336.99 3602.01 2336.99 3602.01 2336.02 2906.01 2336.02 2906.01 2334.02 2226.4 2334.02 2226.4 2334.93 2150.65 2334.93 2150.65 2336.75 1312.04 2336.75 1312.04 2333.84 150.65 2333.84 150.65 2119.39 189.93 2119.39 189.93 1991.39 224.04 1991.39 224.04 1497.82 266.34 1497.82 266.34 1160.95 350.96 1160.95 350.96 1497.82 393.27 1497.82 393.27 1991.39 427.37 1991.39 427.37 2119.39 488.81 2119.39 488.81 1825.77 737.73 1825.77 737.73 1461.67 859.44 1461.67 859.44 2119.39 994.52 2119.39 994.52 1782.74 1034.87 1782.74 1034.87 1623.68 1405.5 1623.68 1405.5 1945.28 1451.96 1945.28 1451.96 1340.35 1541.5 1340.35 1541.5 1945.28 1819.54 1945.28 1819.54 2263.03 1951.73 2263.03 1951.73 1721.39 2027.73 1721.39 2027.73 1202.61 2127.39 1202.61 2127.39 1202.21 2226.4 1202.21 2226.4 2112.04 2436.01 2112.04 2436.01 1764.89 2458.01 1764.89 2458.01 1446.02 2516.01 1446.02 2516.01 1764.89 2539.05 1764.89 2539.05 2112.04 2762.01 2112.04 2762.01 1668.11 3034.39 1668.11 3034.39 1896.14 3106.19 1896.14 3106.19 2206.79 3602.01 2206.79 3602.01 1790.02 3740.01 1790.02"/>
    <rect x="2762.01" y="2334.02" width="144" height="2"/>
  </g>
</svg>
