<svg width="26" height="32" viewBox="0 0 26 32" version="1.1" xmlns="http://www.w3.org/2000/svg" xmlns:xlink="http://www.w3.org/1999/xlink">
<title>img</title>
<desc>Created using Figma</desc>
<g id="Canvas" transform="translate(-193 364)">
<clipPath id="clip-0" clip-rule="evenodd">
<path d="M 193 -364L 219 -364L 219 -332L 193 -332L 193 -364Z" fill="#FFFFFF"/>
</clipPath>
<g id="img" clip-path="url(#clip-0)">
<path d="M 193 -364L 219 -364L 219 -332L 193 -332L 193 -364Z" fill="#FFFFFF"/>
<g id="Vector">
<use xlink:href="#path0_stroke" transform="translate(194.111 -362.662)"/>
</g>
<g id="LOL">
<use xlink:href="#path1_fill" transform="translate(197.582 -344.656)"/>
</g>
</g>
</g>
<defs>
<path id="path0_stroke" d="M 0 29.2409L -1 29.2409L -1 30.2409L 0 30.2409L 0 29.2409ZM 0 0L 0 -1L -1 -1L -1 0L 0 0ZM 17.6134 0L 18.3205 -0.707107L 18.0276 -1L 17.6134 -1L 17.6134 0ZM 23.9432 6.3298L 24.9432 6.3298L 24.9432 5.91559L 24.6503 5.6227L 23.9432 6.3298ZM 23.9432 29.2409L 23.9432 30.2409L 24.9432 30.2409L 24.9432 29.2409L 23.9432 29.2409ZM 1 29.2409L 1 0L -1 0L -1 29.2409L 1 29.2409ZM 0 1L 17.6134 1L 17.6134 -1L 0 -1L 0 1ZM 16.9062 0.707107L 23.236 7.03691L 24.6503 5.6227L 18.3205 -0.707107L 16.9062 0.707107ZM 22.9432 6.3298L 22.9432 29.2409L 24.9432 29.2409L 24.9432 6.3298L 22.9432 6.3298ZM 23.9432 28.2409L 0 28.2409L 0 30.2409L 23.9432 30.2409L 23.9432 28.2409Z"/>
<path id="path1_fill" d="M 4.50175 6.664L 2.20575 6.664L 2.20575 2.576C 2.20575 2.448 2.13375 2.376 2.00575 2.376L 0.86975 2.376C 0.74175 2.376 0.66975 2.448 0.66975 2.576L 0.66975 7.8C 0.66975 7.928 0.74175 8 0.86975 8L 4.50175 8C 4.62975 8 4.70175 7.928 4.70175 7.8L 4.70175 6.864C 4.70175 6.736 4.62975 6.664 4.50175 6.664ZM 7.93738 8.096C 9.66538 8.096 10.9374 6.848 10.9374 5.168C 10.9374 3.472 9.66538 2.248 7.93738 2.248C 6.19337 2.248 4.90538 3.512 4.90538 5.168C 4.90538 6.816 6.19337 8.096 7.93738 8.096ZM 7.93738 6.712C 7.08938 6.712 6.46537 6.048 6.46537 5.168C 6.46537 4.272 7.08938 3.632 7.93738 3.632C 8.76938 3.632 9.37738 4.264 9.37738 5.168C 9.37738 6.056 8.76938 6.712 7.93738 6.712ZM 15.6424 6.664L 13.3464 6.664L 13.3464 2.576C 13.3464 2.448 13.2744 2.376 13.1464 2.376L 12.0104 2.376C 11.8824 2.376 11.8104 2.448 11.8104 2.576L 11.8104 7.8C 11.8104 7.928 11.8824 8 12.0104 8L 15.6424 8C 15.7704 8 15.8424 7.928 15.8424 7.8L 15.8424 6.864C 15.8424 6.736 15.7704 6.664 15.6424 6.664Z"/>
</defs>
</svg>
