<svg width="26" height="32" viewBox="0 0 26 32" version="1.1" xmlns="http://www.w3.org/2000/svg" xmlns:xlink="http://www.w3.org/1999/xlink">
<title>img</title>
<desc>Created using Figma</desc>
<g id="Canvas" transform="translate(-159 364)">
<clipPath id="clip-0" clip-rule="evenodd">
<path d="M 159 -364L 185 -364L 185 -332L 159 -332L 159 -364Z" fill="#FFFFFF"/>
</clipPath>
<g id="img" clip-path="url(#clip-0)">
<path d="M 159 -364L 185 -364L 185 -332L 159 -332L 159 -364Z" fill="#FFFFFF"/>
<g id="Vector">
<use xlink:href="#path0_stroke" transform="translate(160.111 -362.662)"/>
</g>
<g id="OMG">
<use xlink:href="#path1_fill" transform="translate(161.582 -344.656)"/>
</g>
</g>
</g>
<defs>
<path id="path0_stroke" d="M 0 29.2409L -1 29.2409L -1 30.2409L 0 30.2409L 0 29.2409ZM 0 0L 0 -1L -1 -1L -1 0L 0 0ZM 17.6134 0L 18.3205 -0.707107L 18.0276 -1L 17.6134 -1L 17.6134 0ZM 23.9432 6.3298L 24.9432 6.3298L 24.9432 5.91559L 24.6503 5.6227L 23.9432 6.3298ZM 23.9432 29.2409L 23.9432 30.2409L 24.9432 30.2409L 24.9432 29.2409L 23.9432 29.2409ZM 1 29.2409L 1 0L -1 0L -1 29.2409L 1 29.2409ZM 0 1L 17.6134 1L 17.6134 -1L 0 -1L 0 1ZM 16.9062 0.707107L 23.236 7.03691L 24.6503 5.6227L 18.3205 -0.707107L 16.9062 0.707107ZM 22.9432 6.3298L 22.9432 29.2409L 24.9432 29.2409L 24.9432 6.3298L 22.9432 6.3298ZM 23.9432 28.2409L 0 28.2409L 0 30.2409L 23.9432 30.2409L 23.9432 28.2409Z"/>
<path id="path1_fill" d="M 3.36316 8.096C 5.09116 8.096 6.36316 6.848 6.36316 5.168C 6.36316 3.472 5.09116 2.248 3.36316 2.248C 1.61916 2.248 0.331156 3.512 0.331156 5.168C 0.331156 6.816 1.61916 8.096 3.36316 8.096ZM 3.36316 6.712C 2.51516 6.712 1.89116 6.048 1.89116 5.168C 1.89116 4.272 2.51516 3.632 3.36316 3.632C 4.19516 3.632 4.80316 4.264 4.80316 5.168C 4.80316 6.056 4.19516 6.712 3.36316 6.712ZM 13.3722 2.576C 13.3722 2.44 13.2922 2.376 13.1642 2.376L 12.5722 2.376C 12.4682 2.376 12.3882 2.424 12.3322 2.512L 10.3642 5.824L 8.39616 2.512C 8.34016 2.424 8.26016 2.376 8.15616 2.376L 7.51616 2.376C 7.38816 2.376 7.30816 2.44 7.30816 2.576L 7.18816 7.8C 7.18816 7.936 7.25216 8 7.38016 8L 8.47616 8C 8.60416 8 8.67616 7.936 8.67616 7.8L 8.68416 5.416L 9.78816 7.416C 9.84416 7.512 9.92416 7.552 10.0282 7.552L 10.6362 7.552C 10.7402 7.552 10.8282 7.504 10.8762 7.408L 11.9962 5.376L 12.0122 7.8C 12.0122 7.936 12.0842 8 12.2122 8L 13.3082 8C 13.4362 8 13.5002 7.936 13.5002 7.8L 13.3722 2.576ZM 19.3873 5L 18.3873 5C 18.2593 5 18.1873 5.072 18.1873 5.2L 18.1873 6.576C 17.9553 6.68 17.6833 6.712 17.4193 6.712C 16.5713 6.712 15.8993 6.12 15.8993 5.216C 15.8993 4.28 16.5313 3.704 17.4673 3.704C 18.0193 3.704 18.3393 3.816 18.6273 3.976C 18.7473 4.04 18.8353 4.008 18.8993 3.896L 19.3713 3.032C 19.4273 2.92 19.4113 2.824 19.3073 2.76C 18.9553 2.552 18.3553 2.304 17.3953 2.304C 15.5633 2.304 14.3153 3.616 14.3153 5.216C 14.3153 6.816 15.5633 8.072 17.3233 8.072C 18.5553 8.072 19.2593 7.624 19.4993 7.424C 19.5553 7.384 19.5873 7.304 19.5873 7.216L 19.5873 5.2C 19.5873 5.072 19.5153 5 19.3873 5Z"/>
</defs>
</svg>
