<?xml version="1.0" encoding="iso-8859-1"?>
<!-- Generator: Adobe Illustrator 22.0.0, SVG Export Plug-In . SVG Version: 6.00 Build 0)  -->
<svg version="1.1" id="Ebene_1" xmlns="http://www.w3.org/2000/svg" xmlns:xlink="http://www.w3.org/1999/xlink" x="0px" y="0px"
	 viewBox="0 0 410 410" style="enable-background:new 0 0 410 410;" xml:space="preserve">
<g>
	<g>
		<path style="fill:#F39200;" d="M111.668,283.019c-37.936-36.206-36.26-78.573-32.72-121.406
			c30.538,4.338,58.995,8.749,87.565,12.359c53.495,6.759,106.799,6.189,159.994-3.647c18.473-3.416,35.898,4.871,52.91,9.88
			c10.984,3.233,13.921,16.269,11.832,26.909c-3.04,15.49-7.416,30.877-12.981,45.713c-1.871,4.988-8.462,9.657-14.038,11.839
			c-10.477,4.098-21.859,6.062-32.71,9.37c-4.03,1.229-7.628,3.738-10.588,8.508c13.569,2.595,27.219,4.864,40.686,7.873
			c15.125,3.38,27.065,11.543,36.008,23.646c16.118,21.814,10.102,49.119-14.539,62.241c-25.802,13.74-54.563,18.679-83.44,20.948
			c-45.06,3.541-90.282,7.216-135.432,7.187c-45.289-0.028-88.596-11.394-128.041-33.545c-20.208-11.348-25.79-22.61-22.174-42.28
			c4.194-22.816,15.035-34.823,36.766-38.689c15.052-2.677,30.386-3.941,45.606-5.745
			C100.487,283.693,104.646,283.539,111.668,283.019z M345.234,196.428c-2.912,18.661-5.705,36.56-8.506,54.509
			c18.1,1.165,27.932-4.937,29.776-17.892C370.249,206.734,366.604,200.158,345.234,196.428z"/>
		<path style="fill:#FFFFFF;" d="M345.234,196.428c21.371,3.73,25.016,10.306,21.27,36.617
			c-1.844,12.954-11.676,19.057-29.776,17.892C339.528,232.988,342.322,215.088,345.234,196.428z"/>
		<path d="M336.391,103.929c-2.193-3.01-4.869-8.636-3.476-10.611c12.98-18.402,7.901-37.754,4.251-56.971
			c-1.94-10.214-5.044-20.23-8.023-31.907c-16.843,16.111-64.67,16.287-88.171,1.706c-7.564,20.313-15.885,40.205-13.55,61.744
			c1.102,10.166-2.164,12.835-11.404,12.755c-15.363-0.132-30.796-1.17-46.076-0.154c-39.196,2.607-75.158,11.242-90.929,51.064
			c-37.465-2.412-59.1-33.292-44.519-64.279c3.868-8.221,12.895-14.18,19.139-21.498c2.796-3.277,4.569-7.343,6.806-11.05
			c-4.18-1.646-8.323-4.596-12.548-4.707c-16.126-0.422-32.711,12.141-37.97,28.124c-6.517,19.805-2.853,39.198,5.964,57.171
			c11.263,22.961,30.226,36.397,58.437,34.954c4.352-0.222,8.942-0.366,13.097,0.651c44.469,10.88,89.777,16.546,135.527,15.304
			c36.741-0.997,73.379-5.478,110.058-8.476c8.029-0.656,11.81-4.688,13.489-12.555
			C349.802,129.681,345.554,116.506,336.391,103.929z M271.733,57.685c-1.443,2.7-6.891,2.827-12.17,0.284
			c-5.279-2.543-8.389-6.794-6.947-9.494c1.443-2.7,6.891-2.827,12.17-0.284C270.064,50.734,273.175,54.985,271.733,57.685z
			 M287.073,65.138c-2.186,0-3.957-1.683-3.957-3.758c0-2.076,1.772-3.758,3.957-3.758s3.958,1.683,3.958,3.758
			C291.031,63.455,289.259,65.138,287.073,65.138z M312.275,57.97c-5.279,2.543-10.728,2.416-12.17-0.284
			c-1.442-2.701,1.668-6.951,6.947-9.494c5.279-2.543,10.728-2.416,12.17,0.284C320.665,51.175,317.554,55.426,312.275,57.97z"/>
		<ellipse transform="matrix(0.3476 -0.9377 0.9377 0.3476 122.1818 281.4398)" cx="263.328" cy="52.922" rx="7.877" ry="1.639"/>
		<ellipse transform="matrix(0.9377 -0.3476 0.3476 0.9377 0.9836 111.3282)" cx="310.818" cy="52.922" rx="1.639" ry="7.877"/>
	</g>
	<ellipse style="fill:#E6007E;" cx="287.17" cy="61.55" rx="4.378" ry="4.158"/>
	<path style="fill:#E6007E;" d="M213.597,61.121"/>
	<path d="M241.09,59.392c-6.45-1.87-13.21-3.678-20.27-5.384c-8.857-2.139-17.39-3.925-25.544-5.416"/>
	<path d="M237.086,59.272c-5.521-3.678-11.357-7.387-17.512-11.088c-7.722-4.642-15.251-8.853-22.516-12.672"/>
</g>
</svg>
