<svg width="112" height="31" viewBox="0 0 112 31" version="1.1" xmlns="http://www.w3.org/2000/svg" xmlns:xlink="http://www.w3.org/1999/xlink">
<title>Rectangle</title>
<desc>Created using Figma</desc>
<g id="Canvas" transform="translate(-433 -5165)">
<g id="Rectangle">
<use xlink:href="#path0_fill" transform="translate(433.749 5165.58)" fill="#FFFFFF"/>
</g>
</g>
<defs>
<path id="path0_fill" fill-rule="evenodd" d="M 1.13687e-13 5C 1.13798e-13 2.23858 2.23858 -1.11022e-16 5 0L 106 0C 108.761 1.11022e-16 111 2.23858 111 5L 111 25C 111 27.7614 108.761 30 106 30L 5 30C 2.23858 30 -1.11022e-16 27.7614 0 25L 1.13687e-13 5ZM 25.742 11.3059L 20.142 18.7679L 25.826 18.7679L 25.826 19.9999L 18.462 19.9999L 18.462 18.7819L 24.048 11.3059L 18.574 11.3059L 18.574 10.0879L 25.742 10.0879L 25.742 11.3059ZM 32.0355 20C 32.0169 19.832 32.0029 19.643 31.9935 19.433C 31.9842 19.223 31.9795 19.048 31.9795 18.908L 31.9515 18.908C 31.7835 19.2627 31.5012 19.5637 31.1045 19.811C 30.7079 20.0583 30.2669 20.182 29.7815 20.182C 29.3522 20.182 28.9812 20.112 28.6685 19.972C 28.3559 19.832 28.0992 19.6383 27.8985 19.391C 27.6979 19.1437 27.5485 18.8567 27.4505 18.53C 27.3525 18.2033 27.3035 17.8533 27.3035 17.48L 27.3035 13.364L 28.6195 13.364L 28.6195 17.032C 28.6195 17.3027 28.6405 17.5617 28.6825 17.809C 28.7245 18.0563 28.8015 18.2733 28.9135 18.46C 29.0255 18.6467 29.1795 18.796 29.3755 18.908C 29.5715 19.02 29.8235 19.076 30.1315 19.076C 30.6635 19.076 31.0929 18.8777 31.4195 18.481C 31.7462 18.0843 31.9095 17.5547 31.9095 16.892L 31.9095 13.364L 33.2255 13.364L 33.2255 18.572C 33.2255 18.7493 33.2302 18.978 33.2395 19.258C 33.2489 19.538 33.2629 19.7853 33.2815 20L 32.0355 20ZM 36.817 14.4562C 36.985 14.1015 37.2534 13.8005 37.622 13.5532C 37.9907 13.3058 38.427 13.1822 38.931 13.1822C 39.379 13.1822 39.7827 13.2848 40.142 13.4902C 40.5014 13.6955 40.7837 14.0362 40.989 14.5122C 41.213 14.0828 41.5257 13.7538 41.927 13.5252C 42.3284 13.2965 42.767 13.1822 43.243 13.1822C 43.6724 13.1822 44.041 13.2545 44.349 13.3992C 44.657 13.5438 44.9137 13.7375 45.119 13.9802C 45.3244 14.2228 45.476 14.5075 45.574 14.8342C 45.672 15.1608 45.721 15.5108 45.721 15.8842L 45.721 20.0002L 44.405 20.0002L 44.405 16.3182C 44.405 16.0475 44.3817 15.7908 44.335 15.5482C 44.2884 15.3055 44.209 15.0908 44.097 14.9042C 43.985 14.7175 43.8357 14.5682 43.649 14.4562C 43.4624 14.3442 43.2244 14.2882 42.935 14.2882C 42.6364 14.2882 42.3797 14.3512 42.165 14.4772C 41.9504 14.6032 41.7754 14.7665 41.64 14.9672C 41.5047 15.1678 41.4067 15.3942 41.346 15.6462C 41.2854 15.8982 41.255 16.1548 41.255 16.4162L 41.255 20.0002L 39.939 20.0002L 39.939 16.0522C 39.939 15.7908 39.9157 15.5528 39.869 15.3382C 39.8224 15.1235 39.743 14.9392 39.631 14.7852C 39.519 14.6312 39.3744 14.5098 39.197 14.4212C 39.0197 14.3325 38.8004 14.2882 38.539 14.2882C 38.0537 14.2882 37.65 14.4865 37.328 14.8832C 37.006 15.2798 36.845 15.8095 36.845 16.4722L 36.845 20.0002L 35.529 20.0002L 35.529 14.7922C 35.529 14.6148 35.5244 14.3862 35.515 14.1062C 35.5057 13.8262 35.4917 13.5788 35.473 13.3642L 36.719 13.3642C 36.7377 13.5322 36.7517 13.7212 36.761 13.9312C 36.7704 14.1412 36.775 14.3162 36.775 14.4562L 36.817 14.4562ZM 51.7141 20.0001L 50.1741 20.0001L 54.4721 10.0881L 55.7321 10.0881L 59.9881 20.0001L 58.4201 20.0001L 57.4121 17.5641L 52.7081 17.5641L 51.7141 20.0001ZM 53.1981 16.3461L 56.9081 16.3461L 55.0601 11.6981L 53.1981 16.3461ZM 61.2137 14.7921C 61.2137 14.6148 61.209 14.3861 61.1997 14.1061C 61.1903 13.8261 61.1763 13.5788 61.1577 13.3641L 62.4037 13.3641C 62.4223 13.5321 62.4363 13.7258 62.4457 13.9451C 62.455 14.1645 62.4597 14.3441 62.4597 14.4841L 62.5017 14.4841C 62.6883 14.0921 62.9613 13.7771 63.3207 13.5391C 63.68 13.3011 64.0837 13.1821 64.5317 13.1821C 64.737 13.1821 64.9097 13.2008 65.0497 13.2381L 64.9937 14.4561C 64.807 14.4095 64.6063 14.3861 64.3917 14.3861C 64.0743 14.3861 63.799 14.4445 63.5657 14.5611C 63.3323 14.6778 63.1387 14.8341 62.9847 15.0301C 62.8307 15.2261 62.7163 15.4525 62.6417 15.7091C 62.567 15.9658 62.5297 16.2341 62.5297 16.5141L 62.5297 20.0001L 61.2137 20.0001L 61.2137 14.7921ZM 69.3833 14.4418L 67.6193 14.4418L 67.6193 17.8998C 67.6193 18.3011 67.6939 18.5881 67.8433 18.7608C 67.9926 18.9334 68.2306 19.0198 68.5573 19.0198C 68.6786 19.0198 68.8093 19.0058 68.9493 18.9778C 69.0893 18.9498 69.2153 18.9078 69.3273 18.8518L 69.3693 19.9298C 69.2106 19.9858 69.0356 20.0301 68.8443 20.0628C 68.6529 20.0954 68.4546 20.1118 68.2493 20.1118C 67.6239 20.1118 67.1456 19.9391 66.8143 19.5938C 66.4829 19.2484 66.3173 18.7304 66.3173 18.0398L 66.3173 14.4418L 65.0433 14.4418L 65.0433 13.3638L 66.3173 13.3638L 66.3173 11.4598L 67.6193 11.4598L 67.6193 13.3638L 69.3833 13.3638L 69.3833 14.4418ZM 72.0927 20.0001L 70.7767 20.0001L 70.7767 13.3641L 72.0927 13.3641L 72.0927 20.0001ZM 72.3168 10.97C 72.3168 11.2126 72.2304 11.4133 72.0578 11.572C 71.8851 11.7306 71.6774 11.81 71.4348 11.81C 71.1921 11.81 70.9868 11.7283 70.8188 11.565C 70.6508 11.4016 70.5668 11.2033 70.5668 10.97C 70.5668 10.7273 70.6508 10.5243 70.8188 10.361C 70.9868 10.1976 71.1921 10.116 71.4348 10.116C 71.6774 10.116 71.8851 10.1976 72.0578 10.361C 72.2304 10.5243 72.3168 10.7273 72.3168 10.97ZM 75.7543 16.248L 75.7963 16.248L 78.5823 13.364L 80.3463 13.364L 77.2383 16.374L 80.6123 20L 78.7923 20L 75.7963 16.556L 75.7543 16.556L 75.7543 20L 74.4383 20L 74.4383 9.41604L 75.7543 9.41604L 75.7543 16.248ZM 86.4158 16.094C 86.4065 15.8327 86.3622 15.5877 86.2828 15.359C 86.2035 15.1304 86.0868 14.932 85.9328 14.764C 85.7788 14.596 85.5875 14.463 85.3588 14.365C 85.1302 14.267 84.8618 14.218 84.5538 14.218C 84.2738 14.218 84.0102 14.267 83.7628 14.365C 83.5155 14.463 83.3008 14.596 83.1188 14.764C 82.9368 14.932 82.7875 15.1304 82.6708 15.359C 82.5542 15.5877 82.4865 15.8327 82.4678 16.094L 86.4158 16.094ZM 87.7459 16.6258L 87.7459 16.8498C 87.7459 16.9245 87.7412 16.9991 87.7319 17.0738L 82.4679 17.0738C 82.4772 17.3538 82.5402 17.6175 82.6569 17.8648C 82.7736 18.1121 82.9299 18.3268 83.1259 18.5088C 83.3219 18.6908 83.5482 18.8331 83.8049 18.9358C 84.0616 19.0385 84.3346 19.0898 84.6239 19.0898C 85.0719 19.0898 85.4592 18.9918 85.7859 18.7958C 86.1126 18.5998 86.3692 18.3618 86.5559 18.0818L 87.4799 18.8238C 87.1252 19.2905 86.7076 19.6335 86.2269 19.8528C 85.7462 20.0721 85.2119 20.1818 84.6239 20.1818C 84.1199 20.1818 83.6532 20.0978 83.2239 19.9298C 82.7946 19.7618 82.4259 19.5261 82.1179 19.2228C 81.8099 18.9195 81.5672 18.5531 81.3899 18.1238C 81.2126 17.6945 81.1239 17.2185 81.1239 16.6958C 81.1239 16.1825 81.2102 15.7088 81.3829 15.2748C 81.5556 14.8408 81.7959 14.4698 82.1039 14.1618C 82.4119 13.8538 82.7759 13.6135 83.1959 13.4408C 83.6159 13.2681 84.0686 13.1818 84.5539 13.1818C 85.0392 13.1818 85.4802 13.2611 85.8769 13.4198C 86.2736 13.5785 86.6096 13.8071 86.8849 14.1058C 87.1602 14.4045 87.3726 14.7661 87.5219 15.1908C 87.6712 15.6155 87.7459 16.0938 87.7459 16.6258ZM 90.9453 20.0002L 89.6293 20.0002L 89.6293 9.4162L 90.9453 9.4162L 90.9453 20.0002Z"/>
</defs>
</svg>
