
<svg version="1.1" id="Ebene_1" xmlns="http://www.w3.org/2000/svg" xmlns:xlink="http://www.w3.org/1999/xlink" x="0px" y="0px"
	 viewBox="0 0 400 400" style="enable-background:new 0 0 400 400;" xml:space="preserve">
<style type="text/css">
	.fisch-illustration{fill:none;stroke:#000000;stroke-width:9;stroke-miterlimit:10;}
</style>
<path class="fisch-illustration" d="M384.1,165c-21.1-41.7-79.6-71.7-148.5-71.7c-67.2,0-124.5,28.5-146.9,68.6c0,0-10.7,12.8-11.6,9
	c-7.3-30.8-29.9-58.1-62.4-78.3c0,0-5.7,76.9,31.8,106.9c0.2,0.2,0.3,0.7,0.1,0.7c-4.7,2.2-37.7,20.5-31.9,107.2l0,0
	c32.7-20.3,55.4-47.9,62.6-79c1-4.2,13.8,12,13.8,12c23.8,38,79.6,64.7,144.5,64.7c81.2,0,130-46.6,130-46.6l-10.2-15.3l2.2-20
	l-9.7,8.7l-20.8-31.2l47.6-29.8L384.1,165z"/>
</svg>
